<svg width="582" height="402" xmlns="http://www.w3.org/2000/svg">
 <g>
  <title>background</title>
  <rect fill="none" id="canvas_background" height="404" width="584" y="-1" x="-1"/>
 </g>
 <g>
  <title>Layer 1</title>
  <g stroke="null" id="svg_10">
   <g stroke="null" transform="matrix(15.180463850725904,0,0,15.150358610428988,-158.03706277271624,-233.63858932063465) " id="svg_5">
    <g stroke="null" id="svg_6">
     <rect stroke="null" id="svg_7" fill="#00ffff" height="1.215" width="6.84" y="38.691508" x="26.16043"/>
     <polygon stroke="null" id="svg_8" fill="#00ffff" points="22.65943343937397,40.35250787436962 22.30943115055561,41.72650842368603 36.85142906010151,41.72650842368603 36.501430585980415,40.35250787436962 "/>
     <path stroke="null" id="svg_9" fill="#00ffff" d="m40.46743,20.138508l-21.775,0c-0.581,0 -1.052,0.471 -1.052,1.053l0,15.656c0,0.581 0.471,1.053 1.052,1.053l21.774,0c0.582,0 1.053,-0.472 1.053,-1.053l0,-15.656c0,-0.582 -0.47,-1.053 -1.052,-1.053zm-1.052,15.656l-19.669,0l0,-13.551l19.669,0c0,0 0,13.551 0,13.551z"/>
    </g>
   </g>
  </g>
  <metadata transform="matrix(0.04036063171317239,0,0,0.04036063171317239,0,0) ">Created by potrace 1.15, written by Peter Selinger 2001-2017</metadata>
  <g stroke="null" id="svg_27">
   <g id="svg_14" fill="#000000" transform="matrix(0.032499702396871846,0,0,-0.02970939354137042,-1932.4325135412796,-962.1328715891298) ">
    <path fill="#00ffff" stroke="null" id="svg_15" d="m65624.928131,-36277.966888l-110,-117l-7,-154c-10,-205 1,-1251 14,-1427c57,-739 148,-1236 326,-1770c141,-425 301,-757 541,-1121c434,-659 1027,-1173 1806,-1564l157,-79l93,43c380,176 833,465 1173,747c134,112 415,388 532,523c476,552 803,1195 981,1926c140,573 199,1329 173,2200c-6,195 -14,480 -18,633l-6,277l-2773,0l-2772,0l-110,-117zm5403,-133c13,-20 10,-1400 -3,-1590c-37,-540 -97,-953 -196,-1347c-283,-1122 -870,-1978 -1771,-2578c-201,-134 -312,-199 -529,-307l-161,-80l-125,62c-897,444 -1557,1091 -1964,1925c-340,695 -504,1442 -547,2490c-11,270 -7,1018 7,1308l7,127l2638,0c1733,0 2640,-3 2644,-10z"/>
    <path fill="#00ffff" stroke="null" id="svg_16" d="m69816.928131,-36778.966888c-95,-69 -172,-178 -205,-292l-14,-45l-3,43c-2,23 -6,42 -11,42c-4,0 -31,-15 -61,-32c-68,-42 -115,-110 -132,-189c-11,-55 -14,-60 -35,-54c-13,3 -33,0 -44,-6c-32,-16 -22,-92 21,-162c141,-233 502,-506 606,-458c24,11 26,16 21,54c-2,23 -6,48 -8,56c-3,10 9,17 34,22c122,27 201,107 214,219c7,57 -5,180 -17,180c-5,0 -21,-18 -37,-40l-30,-39l-1,77c-1,123 -50,322 -78,322c-7,0 -24,-18 -36,-40c-13,-22 -25,-40 -28,-40c-15,0 -83,261 -88,333c-3,51 -9,77 -17,77c-7,0 -30,-13 -51,-28zm21,-153c9,-41 27,-109 40,-152c31,-96 33,-194 6,-252c-35,-76 -180,-211 -253,-237c-42,-15 -35,-31 10,-23c106,19 252,126 304,222c15,26 34,77 44,113c22,84 30,91 44,44c26,-91 34,-190 21,-249c-16,-72 -76,-137 -143,-155c-78,-22 -74,-20 -58,-30c22,-14 106,-12 143,4c18,7 55,34 84,60c28,26 54,42 58,36c13,-20 -16,-87 -52,-122c-64,-61 -97,-73 -198,-73c-123,0 -178,27 -300,150c-142,142 -193,269 -151,380c15,39 84,115 104,115c4,0 6,-31 4,-70c-4,-61 -1,-77 27,-136c32,-69 38,-112 20,-146c-17,-32 -1,-34 31,-3c37,35 39,75 9,160c-41,118 7,255 140,398c24,26 45,46 47,44c2,-2 10,-37 19,-78z"/>
    <path fill="#00ffff" stroke="null" id="svg_17" d="m67270.928131,-36934.966888c-147,-61 -350,-204 -527,-371c-161,-152 -319,-372 -328,-458c-5,-39 -2,-46 22,-65c42,-33 83,-28 187,26c122,62 221,129 327,221c241,210 429,439 463,564c25,97 -31,130 -144,83zm56,-97c-2,-62 -143,-249 -307,-408l-45,-43l5,66c4,41 1,84 -8,113c-15,53 -14,63 8,111c26,55 273,205 328,199c16,-2 20,-9 19,-38z"/>
    <path fill="#00ffff" stroke="null" id="svg_18" d="m67433.928131,-37158.966888c-27,-53 -125,-183 -205,-272c-150,-169 -379,-346 -570,-442c-92,-46 -89,-56 21,-57c151,-2 298,-39 420,-106c117,-64 316,-201 428,-295c305,-254 960,-883 1723,-1654c301,-304 397,-396 411,-391c10,3 27,15 39,28l21,22l-196,230c-108,127 -311,365 -452,530c-368,431 -1211,1443 -1295,1555c-142,189 -242,434 -292,715c-8,44 -14,101 -14,128c0,57 -13,60 -39,9zm-206,-637c115,-56 220,-141 420,-340c274,-273 964,-1020 1784,-1933c95,-106 170,-196 166,-200c-4,-4 -87,74 -184,174c-1214,1246 -1439,1470 -1731,1721c-313,268 -523,406 -716,469c-47,15 -88,34 -91,41c-9,22 25,51 109,93c91,45 99,45 243,-25z"/>
    <path fill="#00ffff" stroke="null" id="svg_19" d="m69094.928131,-37392.966888c-48,-48 63,-241 239,-418c153,-153 279,-240 433,-301c143,-57 187,-29 130,82l-26,51l-27,-26c-18,-17 -38,-26 -60,-26c-118,0 -474,301 -561,474c-33,66 -37,97 -15,116c22,18 19,28 -15,45c-35,18 -81,20 -98,3z"/>
    <path fill="#00ffff" stroke="null" id="svg_20" d="m69028.928131,-37552.966888c-3,-29 -8,-85 -10,-123c-7,-90 -41,-189 -110,-321c-74,-142 -135,-223 -340,-459c-147,-168 -172,-202 -163,-215c7,-9 24,-31 39,-48l26,-32l209,208c242,243 503,473 661,584c22,15 21,16 -72,109c-101,102 -185,220 -211,299c-9,28 -18,50 -20,50c-2,0 -6,-24 -9,-52z"/>
    <path fill="#00ffff" stroke="null" id="svg_21" d="m69512.928131,-38144.966888c-191,-67 -397,-206 -725,-487c-71,-61 -154,-134 -183,-161l-54,-51l20,-20c25,-24 9,-35 218,148c247,215 384,314 564,405c141,71 303,120 399,120c22,0 43,5 46,10c3,6 -4,10 -17,10c-13,0 -54,12 -93,25c-84,30 -92,30 -175,1z"/>
    <path fill="#00ffff" stroke="null" id="svg_22" d="m67916.928131,-39182.966888c-175,-196 -396,-437 -518,-566l-40,-42l28,-28l28,-27l194,200c107,110 284,293 394,406l199,206l-37,36c-21,21 -40,37 -43,37c-3,0 -95,-100 -205,-222z"/>
    <path fill="#00ffff" stroke="null" id="svg_23" d="m67869.928131,-39491.966888c-224,-215 -407,-394 -407,-397c0,-4 10,-13 21,-21c20,-12 26,-8 83,46c57,56 461,443 662,634l92,88l-22,20l-21,20l-408,-390z"/>
    <path fill="#00ffff" stroke="null" id="svg_24" d="m67260.928131,-39801.966888c-16,-12 -28,-30 -28,-43c0,-52 120,-171 196,-196c34,-12 38,-11 66,17l30,30l-49,31c-56,36 -115,90 -158,144l-30,37l-27,-20z"/>
    <path fill="#00ffff" stroke="null" id="svg_25" d="m66983.928131,-40220.966888c-140,-151 -251,-278 -251,-288c0,-26 31,-52 61,-52c18,1 93,68 286,258l262,257l-53,47l-53,47l-252,-269z"/>
    <path fill="#00ffff" stroke="null" id="svg_26" d="m69837.928131,-40411.966888c-11,-35 -64,-87 -100,-99l-35,-11l16,-31c13,-25 19,-29 42,-23c100,24 173,143 108,173c-22,10 -26,8 -31,-9z"/>
   </g>
  </g>
 </g>
</svg>
